# xmcd
#
# Track frame offsets: 
#        150
#        13874
#        26820
#        51130
#        64506
#        79472
#        94773
#        112521
#        122759
#        134892
#        145337
#        158578
#        169850
#        184297
#        198933
#        211876
#
# Disc length: 2980 seconds
#
# Revision: 0
# Processed by: cddbd v1.5.2PL0 Copyright (c) Steve Scherf et al.
# Submitted via: ExactAudioCopy v1.0b1
#
DISCID=e10ba210
DTITLE=Various Artist - The Birth of Rhythm and Blues [CD3)
DYEAR=1900
DGENRE=R&B
TTITLE0=Joe Morris with Laurie Tate - Anytime, Anyplace, Anywhere
TTITLE1=Ruth Brown - Teardrops From My Eyes
TTITLE2=Louis Jordan - Saturday Night Fish Fry
TTITLE3=The Orioles - It's Too Soon To Know
TTITLE4=Big Jay McNeely - Deacon's Hop
TTITLE5=Amos Milburn - I'm Just A Fool In Love
TTITLE6=Joe Liggins - Pink Champagne
TTITLE7=The Ravens - Gotta Find My Baby
TTITLE8=Dinah Washington - I Wanna Be Loved
TTITLE9=Chuck Willis - Let's Jump Tonight
TTITLE10=Hal Singer - Cornbread
TTITLE11=Sister Rosetta Thorpe - Up Above My Head
TTITLE12=Al Hibbler - Danny Boy
TTITLE13=Stick McGhee - Drinkin' Wine, Spo-Dee-O-Dee
TTITLE14=Professor Longhair - Mardis Gras In New Orleans
TTITLE15=Ruth Brown - So Long
EXTD=
EXTT0=
EXTT1=
EXTT2=
EXTT3=
EXTT4=
EXTT5=
EXTT6=
EXTT7=
EXTT8=
EXTT9=
EXTT10=
EXTT11=
EXTT12=
EXTT13=
EXTT14=
EXTT15=
PLAYORDER=
